<?xml version="1.0" encoding="UTF-8"?>
<svg width="54px" height="58px" viewBox="0 0 54 58" version="1.1" xmlns="http://www.w3.org/2000/svg" xmlns:xlink="http://www.w3.org/1999/xlink">
    <g id="Adonis---Branding" stroke="none" stroke-width="1" fill="none" fill-rule="evenodd">
        <g id="Logo---Vertical" transform="translate(-426.000000, -31.000000)" fill-rule="nonzero" fill="#B9B9B9">
            <g id="noun_1286871_cc" transform="translate(426.000000, 31.000000)">
                <g id="Group">
                    <g id="Shape">
                        <path d="M53.5,39 C53.5,42.5878573 50.5829191,45.5 46.9901068,45.5 L7.0098932,45.5 C3.4150296,45.5 0.5,42.5915421 0.5,39 C0.5,35.5820408 3.1447986,32.7757073 6.5,32.5191249 L6.5,20.9992494 C6.5,9.6749315 15.6768099,0.5 27,0.5 C38.3232919,0.5 47.5,9.6770953 47.5,20.9992494 L47.5,32.5191677 C50.850837,32.7759629 53.5,35.5810352 53.5,39 Z M46.9979131,37.5 C44.5116547,37.5 42.5,35.4893219 42.5,32.9982567 L42.5,20.9992494 C42.5,12.4384718 35.5618209,5.5 27,5.5 C18.4380046,5.5 11.5,12.4365844 11.5,20.9992494 L11.5,32.9982567 C11.5,35.4828561 9.4840955,37.5 7.0020869,37.5 C6.1742017,37.5 5.5,38.1743732 5.5,39 C5.5,39.827589 6.1739303,40.5 7.0098932,40.5 L46.9901068,40.5 C47.82339,40.5 48.5,39.8245354 48.5,39 C48.5,38.1755733 47.823094,37.5 46.9979131,37.5 Z M17.5,48 L22.5,48 C22.5,50.4852814 24.5147186,52.5 27,52.5 C29.4852814,52.5 31.5,50.4852814 31.5,48 L36.5,48 C36.5,53.2467051 32.2467051,57.5 27,57.5 C21.7532949,57.5 17.5,53.2467051 17.5,48 Z"></path>
                    </g>
                </g>
            </g>
        </g>
    </g>
</svg>
