<?xml version="1.0" encoding="UTF-8"?>
<svg width="186px" height="187px" viewBox="0 0 186 187" version="1.1" xmlns="http://www.w3.org/2000/svg" xmlns:xlink="http://www.w3.org/1999/xlink">
    <!-- Generator: Sketch 47.1 (45422) - http://www.bohemiancoding.com/sketch -->
    <title>ICON</title>
    <desc>Created with Sketch.</desc>
    <defs></defs>
    <g id="Page-1" stroke="none" stroke-width="1" fill="none" fill-rule="evenodd">
        <g id="404" transform="translate(-170.000000, -186.000000)">
            <g id="404-+-Looks-like-you’re-lo" transform="translate(170.000000, 164.000000)">
                <g id="Looks-like-you’re-lo-+-The-page-you-are-loo-+-404-+-iocn-for-dribbble">
                    <g id="ICON" transform="translate(0.000000, 23.000000)">
                        <circle id="Oval-1" fill="#F6F8FD" cx="93" cy="93" r="93"></circle>
                        <g id="Group" transform="translate(31.000000, 0.000000)">
                            <path d="M0.624434389,43.531988 L12.1085973,48.4019432 L19.9819005,64.0399103 L21.3122172,66.9077728 L25.3303167,66.0961136 L33.6651584,64.6621824 L39.6923077,66.5019432 L42.2986425,68.0982063 L43.7104072,78.5144993 L45.2850679,81.761136 L49.0859729,85.7382661 L50.6606335,86.6310912 L54.1900452,80.5977578 L60.9230769,69.2345291 L61.7647059,67.5841555 L71.5113122,67.0701046 L77.5656109,66.3666667 C77.5656109,66.3666667 81.2307692,65.7173393 81.7737557,64.5810164 C82.3167421,63.4446936 85.6289593,58.3853513 85.6289593,58.3853513 L90.4072398,51.1345291 L94.8868778,47.590284 L98.6334842,44.2083707 L99.3122172,43.9107623 C99.3122172,43.9107623 100.859729,45.2364723 102.271493,44.9118087 C103.656109,44.587145 105.095023,43.3426009 105.339367,42.909716 C105.556561,42.5038864 107.076923,37.6880419 107.402715,36.1729447 C107.728507,34.6578475 108.081448,28.9762332 108.081448,28.9762332 L106.696833,23.5651719 C106.696833,23.5651719 104.38914,16.2331839 104.307692,15.096861 C104.226244,13.9605381 103.004525,9.22585949 103.004525,9.22585949 L101.484163,1.05515695 C101.484163,1.05515695 103.167421,2.21853513 103.357466,2.43497758 C103.547511,2.65142003 109.113122,10.0916293 109.113122,10.0916293 L114.515837,19.2633782 L117.393665,26.9741405 L119.076923,35.2801196 L119.61991,44.2895366 L118.751131,53.8400598 L115.520362,64.8786248 L111.61086,72.6976084 L105.936652,82.9786248 L99.3122172,94.2336323 L94.7511312,104.433483 L92.1447964,115.850822 L91.0045249,127.755157 C91.0045249,127.755157 89.4027149,132.516891 88.8868778,133.220329 C88.3710407,133.923767 85.5746606,136.737519 85.5746606,136.737519 L83.9728507,137.819731 L76.6968326,139.361883 L63.040724,139.524215 L48.7873303,139.659492 C48.7873303,139.659492 40.9140271,139.010164 40.2352941,138.847833 C39.5565611,138.685501 34.6696833,137.495067 33.0950226,135.925859 C31.520362,134.356652 29.0226244,130.190135 28.6696833,127.809268 C28.3167421,125.428401 28.2624434,119.016293 28.2624434,119.016293 C28.2624434,119.016293 27.1221719,112.1713 26.5520362,109.898655 C25.9547511,107.653064 23.7013575,100.753961 23.0769231,99.3741405 C22.4524887,97.9943199 19.4932127,91.7445441 18.9502262,91.1493274 C18.4072398,90.5541106 13.4117647,81.1118087 12.3529412,80.2730942 C11.2941176,79.4343797 6,68.3146487 5.42986425,66.9348281 C4.85972851,65.5550075 2.06334842,57.9795217 2.19909502,57.6007474 C2.33484163,57.1949178 0.407239819,48.1313901 0.352941176,47.590284 C0.298642534,47.0491779 0.352941176,43.3967115 0.624434389,43.531988 L0.624434389,43.531988 Z" id="Shape" fill="#FFFFFF"></path>
                            <path d="M33.040724,66.745441 C33.040724,66.745441 34.0723982,75.1055306 36.4886878,83.8714499 C36.9773756,85.6300448 37.3303167,87.4156951 37.4660633,89.2284006 C37.7647059,93.1243647 37.2217195,97.4261584 31.0588235,86.793423 C29.1312217,83.4656203 24.9773756,74.5103139 24.841629,65.7714499 L29.158371,64.9056801 L32.6334842,64.9597907 C32.6334842,64.9327354 33.3393665,64.6892377 33.040724,66.745441 L33.040724,66.745441 Z" id="Shape" fill="#E8E9EA" opacity="0.18"></path>
                            <path d="M34.9411765,66.745441 C34.9411765,66.745441 35.9728507,75.1055306 38.3891403,83.8714499 C38.8778281,85.6300448 39.2307692,87.4156951 39.3665158,89.2284006 C39.6651584,93.1243647 39.1221719,97.4261584 32.959276,86.793423 C31.0316742,83.4656203 26.8778281,74.5103139 26.7420814,65.7714499 L31.0588235,64.9056801 L34.5339367,64.9597907 C34.5339367,64.9327354 35.239819,64.6892377 34.9411765,66.745441 L34.9411765,66.745441 Z" id="Shape" fill="#E8E9EA" opacity="0.33"></path>
                            <path d="M103.303167,10.5245142 C103.330317,10.7139013 103.411765,10.9032885 103.520362,11.0926756 C104.877828,13.2300448 113.864253,28.8409567 113.321267,44.5600897 C112.723982,61.7672646 105.909502,69.9920777 104.090498,73.9692078 C102.271493,77.9463378 90.5972851,94.7206278 89.2126697,106.246188 C87.8280543,117.771749 88.3438914,125.915396 86.7149321,129.162033 C85.0859729,132.40867 81.6108597,135.06009 77.1855204,135.303587 L77.0769231,135.303587 C76.2624434,135.411809 65.1040724,136.872795 39.3665158,135.384753 C39.3122172,135.384753 39.2579186,135.384753 39.2307692,135.357698 C34.561086,134.708371 30.7873303,131.272347 30.4343891,125.347235 C30.081448,119.395067 30.6244344,111.278475 23.1040724,95.0452915 C15.5837104,78.8121076 8.00904977,68.341704 5.07692308,58.5747384 C2.90497738,51.296861 2.68778281,47.5091181 2.74208145,45.6423019 C2.76923077,44.938864 2.28054299,44.3165919 1.57466063,44.1542601 L1.57466063,44.1542601 C0.814479638,43.9648729 0.271493213,44.4518685 0.352941176,45.2364723 C0.814479638,49.3488789 2.00904977,58.6559043 3.80090498,62.7412556 C6.19004525,68.2064275 11.6199095,79.4343797 14.199095,82.816293 C16.7782805,86.1982063 21.6108597,95.8028401 22.0180995,97.3720478 C22.4253394,98.9412556 26.4434389,108.275336 27.040724,113.469955 C27.5294118,117.528251 27.9638009,119.070404 28.1266968,119.557399 C28.1809955,119.692676 28.2081448,119.855007 28.2081448,119.990284 C28.2352941,121.424215 28.479638,128.675037 30.081448,131.272347 C31.8733032,134.167265 33.719457,137.468012 37.6561086,138.360837 C41.5927602,139.253662 55.2488688,139.199552 55.2488688,139.199552 L68.6877828,139.470105 C69.3665158,139.470105 70.479638,139.470105 71.158371,139.443049 C77.7013575,139.145441 80.7420814,138.766667 81.9909502,138.57728 C83.7828054,138.306726 85.438914,137.549178 87.800905,136.007025 C88.3710407,135.655306 90.760181,132.706278 90.9773756,128.404484 C91.1131222,125.996562 91.8733032,118.177578 92.0633484,117.284753 C92.2533937,116.391928 93.0950226,109.709268 94.4253394,106.110912 C95.6470588,102.83722 99.3122172,93.6925262 103.9819,86.441704 C108.081448,80.1107623 109.167421,77.432287 109.357466,76.8641256 C109.384615,76.7829596 109.438914,76.7017937 109.466063,76.6206278 C110.253394,75.2949178 116.606335,64.6351271 117.149321,60.4686099 C117.149321,60.4144993 117.176471,60.3603886 117.176471,60.306278 C117.366516,59.5216741 118.859729,53.677728 119.104072,51.6756353 C119.348416,49.5382661 119.809955,39.6360239 119.104072,35.3342302 C118.39819,31.0324365 116.552036,23.1863976 115.221719,20.8325859 C113.972851,18.6140508 109.520362,10.9032885 109.004525,9.98340807 C108.977376,9.92929746 108.923077,9.87518685 108.895928,9.82107623 L104.524887,4.1935725 C100.289593,-1.37982063 102.217195,3.89596413 102.40724,5.11345291 L103.303167,10.5245142 L103.303167,10.5245142 Z" id="Shape" fill="#1951FC" opacity="0.19"></path>
                            <path d="M104.552036,40.5017937 C104.552036,40.5017937 108.597285,50.5122571 103.357466,60.9826607 C98.1176471,71.4530643 97.0316742,71.4801196 97.0316742,71.4801196 C97.0316742,71.4801196 97.3846154,64.2292975 97.0316742,60.0898356 C96.678733,55.9503737 95.4027149,50.8910314 93.8552036,47.6443946 C93.8552036,47.6443946 94.9140271,45.8857997 96.1085973,45.4799701 C97.4660633,45.0200299 101.18552,44.2083707 101.18552,44.2083707 C101.18552,44.2083707 104.334842,41.7463378 104.552036,40.5017937 L104.552036,40.5017937 Z" id="Shape" fill="#E5E5E5" opacity="0.08"></path>
                            <path d="M90.1357466,128.404484 C90.1357466,128.404484 89.8642534,137.468012 80.361991,137.76562" id="Shape" stroke="#1951FC" stroke-width="1.5" opacity="0.3" stroke-linecap="round"></path>
                            <path d="M105.638009,40.5017937 C105.638009,40.5017937 109.683258,50.5122571 104.443439,60.9826607 C99.2036199,71.4530643 98.1176471,71.4801196 98.1176471,71.4801196 C98.1176471,71.4801196 98.4705882,64.2292975 98.1176471,60.0898356 C97.7647059,55.9503737 96.4886878,50.8910314 94.9411765,47.6443946 C94.9411765,47.6443946 96,45.8857997 97.1945701,45.4799701 C98.5520362,45.0200299 102.271493,44.2083707 102.271493,44.2083707 C102.271493,44.2083707 105.420814,41.7463378 105.638009,40.5017937 L105.638009,40.5017937 Z" id="Shape" fill="#E5E5E5" opacity="0.2"></path>
                            <g id="Shape">
                                <path d="M34.8054299,137.116293 C28.8325792,131.921674 28.5882353,127.024664 28.39819,121.451271 C28.3438914,119.286846 28.0995475,117.122422 27.6923077,114.985052 C25.4660633,103.432436 22.8325792,98.1025411 18.8959276,90.9058296 C17.239819,87.8756353 15.4751131,84.9536622 13.60181,82.0587444 C1.00452489,62.6600897 0.21719457,48.1043348 0.271493213,44.2624813 C0.271493213,43.7754858 0.787330317,43.4508221 1.22171946,43.6402093 L12.3257919,48.3478326 C12.7058824,48.5101644 13.0045249,48.8077728 13.1674208,49.1594918 L21.0678733,66.0961136 C21.2579186,66.5019432 21.719457,66.745441 22.1538462,66.6372197 L32.8506787,64.4998505 C33.0678733,64.4457399 33.2579186,64.4457399 33.4751131,64.4998505 L36.8144796,65.1491779 C37.3846154,65.2573991 37.9547511,64.8786248 38.0904977,64.3104634 L38.6606335,61.6049327 C38.7420814,61.2261584 38.9864253,60.9285501 39.3393665,60.7662182 L57.638009,52.5684604 C58.2081448,52.3249626 58.6425339,51.8379671 58.8054299,51.2156951 L63.6108597,34.4143498 C63.719457,33.9814649 63.9638009,33.6297459 64.3167421,33.3321375 L80.2262443,19.8044843 C80.7149321,19.3715994 81.5022624,19.5068759 81.8280543,20.0750374 L91.4932127,36.4705531 C91.7918552,36.9575486 92.4434389,37.0928251 92.8778281,36.7140508 C95.5927602,34.5496263 104.063348,27.7587444 106.533937,25.4860987 C106.968326,25.0802691 107.131222,24.457997 106.941176,23.9168909 C103.628959,14.12287 101.61991,1.13632287 101.457014,0.108221226 C101.457014,0.0811659193 101.484163,0.0811659193 101.484163,0.108221226 C107.294118,6.65560538 109.221719,9.09058296 113.104072,16.2061286 C115.19457,20.0479821 116.714932,24.1874439 117.882353,28.4080717 C122.171946,43.9919283 117.882353,57.7089686 117.230769,60.2521674 C117.067873,60.8744395 116.579186,62.2272048 116.38914,62.8224215 C114.651584,67.9358744 102.271493,89.3636771 101.348416,90.851719" stroke="#353D47" stroke-width="1.08000001"></path>
                                <path d="M34.8054299,137.116293 C28.8325792,131.921674 28.5882353,127.024664 28.39819,121.451271 C28.3438914,119.286846 28.0995475,117.122422 27.6923077,114.985052 C25.4660633,103.432436 22.8325792,98.1025411 18.8959276,90.9058296 C17.239819,87.8756353 15.4751131,84.9536622 13.60181,82.0587444 C1.00452489,62.6600897 0.21719457,48.1043348 0.271493213,44.2624813 C0.271493213,43.7754858 0.787330317,43.4508221 1.22171946,43.6402093 L12.3257919,48.3478326 C12.7058824,48.5101644 13.0045249,48.8077728 13.1674208,49.1594918 L21.0678733,66.0961136 C21.2579186,66.5019432 21.719457,66.745441 22.1538462,66.6372197 L32.8506787,64.4998505 C33.0678733,64.4457399 33.2579186,64.4457399 33.4751131,64.4998505 L36.8144796,65.1491779 C37.3846154,65.2573991 37.9547511,64.8786248 38.0904977,64.3104634 L38.6606335,61.6049327 C38.7420814,61.2261584 38.9864253,60.9285501 39.3393665,60.7662182 L57.638009,52.5684604 C58.2081448,52.3249626 58.6425339,51.8379671 58.8054299,51.2156951 L63.6108597,34.4143498 C63.719457,33.9814649 63.9638009,33.6297459 64.3167421,33.3321375 L80.2262443,19.8044843 C80.7149321,19.3715994 81.5022624,19.5068759 81.8280543,20.0750374 L91.4932127,36.4705531 C91.7918552,36.9575486 92.4434389,37.0928251 92.8778281,36.7140508 C95.5927602,34.5496263 104.063348,27.7587444 106.533937,25.4860987 C106.968326,25.0802691 107.131222,24.457997 106.941176,23.9168909 C103.628959,14.12287 101.61991,1.13632287 101.457014,0.108221226 C101.457014,0.0811659193 101.484163,0.0811659193 101.484163,0.108221226 C107.294118,6.65560538 109.221719,9.09058296 113.104072,16.2061286 C115.19457,20.0479821 116.714932,24.1874439 117.882353,28.4080717 C122.171946,43.9919283 117.882353,57.7089686 117.230769,60.2521674 C117.067873,60.8744395 116.579186,62.2272048 116.38914,62.8224215 C114.651584,67.9358744 102.271493,89.3636771 101.348416,90.851719" stroke="#333435" stroke-width="1.5" stroke-linecap="round"></path>
                            </g>
                            <path d="M37.7104072,65.2573991 L42.8687783,67.3406577 C43.1945701,67.4759342 43.438914,67.7735426 43.4932127,68.1252616 L45.1493213,79.0826607 C45.2307692,79.5696562 45.4208145,80.0025411 45.7466063,80.3813154 L49.60181,84.9266069 C50.361991,85.819432 51.7737557,85.6841555 52.3710407,84.6831091 L61.9004525,68.2064275 C62.1176471,67.8547085 62.4705882,67.6112108 62.8778281,67.5841555 L79.1131222,66.3125561 C79.1131222,66.3125561 81.3936652,66.2313901 83.5927602,62.0378176 C84.8959276,59.5757848 87.1764706,56.0044843 88.8325792,53.4883408 C90.081448,51.5944694 91.6289593,49.8899851 93.3936652,48.4560538 L97.6832579,44.9929746 C98.280543,44.5059791 99.040724,44.2895366 99.800905,44.3707025 C101.18552,44.5059791 103.547511,44.3707025 105.040724,42.0980568 C105.366516,41.6110613 105.58371,41.0428999 105.665158,40.4747384 L107.076923,32.1687593 C107.21267,31.3841555 107.21267,30.5995516 107.104072,29.8149477 L107.049774,24.5391629" id="Shape" stroke="#333435" stroke-width="1.5"></path>
                            <path d="M81.9095023,64.2022422 C81.6651584,64.4998505 81.6108597,64.9056801 81.719457,65.2844544 C82.0723982,66.5019432 83.0226244,69.7756353 83.158371,71.1013453 C83.321267,72.5623318 83.6199095,78.6768311 83.7013575,79.9754858 C83.7013575,80.1378176 83.7285068,80.3001495 83.7556561,80.4624813 L85.4117647,89.444843 C85.4117647,89.444843 83.918552,79.0826607 83.9728507,78.7850523 C84.0271493,78.4874439 89.158371,80.6248132 89.158371,80.6248132 L84.7330317,78.6497758 C84.1357466,78.3792227 83.7556561,77.8110613 83.7285068,77.1887892 C83.6470588,74.9431988 83.4841629,69.8026906 83.4841629,69.6133034 C83.4841629,69.3698057 82.5882353,65.1491779 82.3167421,64.364574 C82.2352941,63.9316891 82.0723982,64.012855 81.9095023,64.2022422 L81.9095023,64.2022422 Z" id="Shape" fill="#333435"></path>
                            <path d="M82.1809955,63.9316891 C81.9366516,64.2292975 81.8823529,64.6351271 81.9909502,65.0139013 C82.3438914,66.2313901 83.2941176,69.5050822 83.4298643,70.8307922 C83.5927602,72.2917788 83.7285068,78.2168909 83.9728507,79.7049327 C84,79.8672646 84,80.0295964 84.0271493,80.1919283 L85.6832579,89.17429 C85.6832579,89.17429 84.0542986,78.757997 84.1085973,78.4333333 C84.2443439,78.406278 89.1855204,80.5977578 89.1855204,80.5977578 L85.0316742,78.3521674 C84.4343891,78.0816143 84.0542986,77.5134529 84.0271493,76.8911809 C83.9457014,74.6455904 83.7828054,69.5050822 83.7828054,69.3156951 C83.7828054,69.0721973 82.8868778,64.8515695 82.6153846,64.0669656 C82.5067873,63.661136 82.3438914,63.7423019 82.1809955,63.9316891 L82.1809955,63.9316891 Z" id="Shape" fill="#1951FC" opacity="0.31"></path>
                            <path d="M22.3710407,67.2053812 L21.7466063,72.6434978 C21.719457,72.7787743 21.7466063,72.9140508 21.800905,73.0493274 C22.0180995,73.5904335 22.6153846,75.1596413 22.8868778,76.1606876 C22.9411765,76.2959641 22.7239819,76.37713 22.6425339,76.2418535 C22.2352941,75.4572496 21.638009,74.2127055 21.3665158,73.6445441 C21.2579186,73.4281016 21.0678733,73.3198804 20.8506787,73.3198804 L19.3303167,73.3198804 C19.1674208,73.3198804 19.1131222,73.0763827 19.2760181,73.022272 L20.280543,72.6705531 C20.5520362,72.5623318 20.7692308,72.3188341 20.7963801,72.0212257 L21.2850679,66.8807175 C21.3122172,66.6101644 21.5565611,66.4207773 21.8280543,66.4478326 L21.9638009,66.7183857 C22.2352941,66.745441 22.39819,66.9618834 22.3710407,67.2053812 L22.3710407,67.2053812 Z" id="Shape" fill="#333435"></path>
                            <path d="M22.2081448,67.5029895 L21.4479638,72.9140508 C21.4208145,73.0493274 21.4479638,73.1846039 21.5022624,73.3198804 C21.6923077,73.8609865 22.4524887,75.3219731 22.7239819,76.3500747 C22.7511312,76.4853513 22.5067873,76.6206278 22.4524887,76.4853513 C22.0723982,75.7007474 21.3393665,74.5103139 21.0950226,73.9150972 C21.0135747,73.6986547 20.7963801,73.5633782 20.5791855,73.5633782 L19.0859729,73.6715994 C18.9230769,73.6715994 19.0588235,73.2116592 19.2217195,73.1575486 L20.0361991,72.8869955 C20.3348416,72.8058296 20.5248869,72.5352765 20.5791855,72.2376682 L21.0950226,66.7183857 C21.1221719,66.4478326 21.4751131,66.6372197 21.7466063,66.664275 L21.8552036,66.9618834 C22.0723982,67.0430493 22.2624434,67.2594918 22.2081448,67.5029895 L22.2081448,67.5029895 Z" id="Shape" fill="#6F7175" opacity="0.15"></path>
                            <path d="M51.6651584,85.5488789 L47.4298643,97.5343797 C47.4298643,97.561435 47.3755656,97.561435 47.3755656,97.5343797 L49.9819005,85.9547085 C50.0090498,85.7653214 50.1447964,85.6029895 50.3348416,85.5488789 L51.2850679,85.2242152 C51.5294118,85.115994 51.719457,85.3324365 51.6651584,85.5488789 L51.6651584,85.5488789 Z" id="Shape" fill="#333435"></path>
                            <path d="M50.6334842,85.4136024 L47.3484163,97.6967115 C47.3484163,97.7237668 47.2941176,97.7237668 47.2941176,97.6967115 L48.9773756,85.9276532 C49.0045249,85.7382661 49.1131222,85.5759342 49.3031674,85.4947683 L50.2262443,85.0889387 C50.4705882,84.9807175 50.6877828,85.1701046 50.6334842,85.4136024 L50.6334842,85.4136024 Z" id="Shape" fill="#1951FC" opacity="0.22"></path>
                            <path d="M73.1131222,49.4571001 C73.1131222,49.4571001 75.5565611,51.2156951 80.3348416,50.2958146 C80.8778281,50.0793722 81.8280543,50.0793722 81.9095023,50.3499253 C81.9909502,50.6204783 80.3076923,56.8161435 80.3076923,57.0866966 L79.2760181,57.0866966 L76.2895928,66.0149477 L74.9321267,66.0149477 C74.9321267,66.0149477 79.8190045,52.4331839 80.0904977,50.8098655 C80.1447964,50.7557549 76.2895928,51.4321375 72.841629,49.9170404 C72.841629,49.8358744 72.841629,49.2947683 73.1131222,49.4571001 L73.1131222,49.4571001 Z" id="Shape" fill="#9AAAC1"></path>
                            <path d="M73.9276018,49.1865471 C73.9276018,49.1865471 76.3710407,50.945142 81.1493213,50.0252616 C81.6923077,49.8088191 82.6425339,49.8088191 82.7239819,50.0793722 C82.8054299,50.3499253 81.1221719,56.5455904 81.1221719,56.8161435 L80.0904977,56.8161435 L77.1040724,65.7443946 L75.7466063,65.7443946 C75.7466063,65.7443946 80.6334842,52.1626308 80.9049774,50.5393124 C80.959276,50.4852018 77.1040724,51.1615845 73.6561086,49.6464873 C73.6561086,49.5653214 73.6561086,49.0242152 73.9276018,49.1865471 L73.9276018,49.1865471 Z" id="Shape" fill="#9AAAC1" opacity="0.29"></path>
                            <path d="M75.2850679,68.1793722 C75.2850679,68.1793722 68.7692308,89.1472347 68.4162896,90.5811659 C68.0633484,92.0150972 68.0633484,98.8059791 69.3122172,107.571898 C70.0452489,114.146338 69.5022624,134.356652 69.8552036,135.087145 C70.2081448,135.817638 68.6606335,110.439761 68.199095,108.221226 C67.7375566,105.975635 66.5158371,94.2877429 67.3846154,90.851719 C68.2533937,87.4156951 73.7104072,69.9650224 73.7104072,69.9650224 L74.3348416,68.1793722 L75.2850679,68.1793722 L75.2850679,68.1793722 Z" id="Shape" fill="#B4C1DB" opacity="0.48"></path>
                            <path d="M76.3710407,68.1793722 C76.3710407,68.1793722 69.8552036,89.1472347 69.5022624,90.5811659 C69.1493213,92.0150972 69.1493213,98.8059791 70.39819,107.571898 C71.1312217,114.146338 70.5882353,134.356652 70.9411765,135.087145 C71.2941176,135.817638 69.7466063,110.439761 69.2850679,108.221226 C68.8235294,105.975635 67.60181,94.2877429 68.4705882,90.851719 C69.3393665,87.4156951 74.7963801,69.9650224 74.7963801,69.9650224 L75.4208145,68.1793722 L76.3710407,68.1793722 L76.3710407,68.1793722 Z" id="Shape" fill="#1951FC" opacity="0.12"></path>
                            <path d="M50.5520362,89.2825112 C51.040724,90.9599402 51.2307692,96.7227205 50.9864253,99.3200299 C50.7420814,101.944395 50.4162896,104.000598 49.9004525,109.249327 C49.3846154,114.471001 50.0633484,132.706278 50.0633484,132.706278 C50.0633484,132.706278 50.3891403,115.174439 50.5248869,113.848729 C50.6606335,112.550075 52.0723982,100.1858 52.2352941,96.857997 C52.4253394,93.5301943 51.4751131,87.7944694 51.4751131,87.7944694 L51.2850679,86.4958146 L50.5520362,89.2825112 L50.5520362,89.2825112 Z" id="Shape" fill="#B4C1DB" opacity="0.48"></path>
                            <path d="M66.1085973,68.9369208 C66.1085973,68.9369208 64.2624434,74.0233184 62.9049774,74.0233184" id="Shape" stroke="#142A51" stroke-width="0.540000007" opacity="0.46"></path>
                            <path d="M48.9502262,43.1802691 C48.9502262,43.1802691 48.5158371,47.1032885 48.841629,48.2666667 C49.1945701,49.4029895 52.6968326,65.5008969 52.8325792,65.690284 C52.9411765,65.8526158 54.2714932,70.0732436 55.4932127,72.2376682 C55.9276018,72.9952167 56.6334842,73.5904335 57.4751131,73.8339312 C57.8823529,73.9692078 58.5339367,73.9692078 58.5339367,73.9692078" id="Shape" stroke="#1951FC" stroke-width="0.5" opacity="0.3"></path>
                            <path d="M71.0497738,43.1532138 C71.0497738,43.1532138 71.5927602,48.4289985 69.1493213,56.7349776 C67.60181,63.4988042 66.7873303,66.745441 66.7873303,66.745441" id="Shape" stroke="#1951FC" stroke-width="0.5" opacity="0.3"></path>
                            <path d="M71.5927602,43.1532138 C71.5927602,43.1532138 72.1357466,48.4289985 69.6923077,56.7349776 C68.1447964,63.4988042 67.3303167,66.745441 67.3303167,66.745441" id="Shape" stroke="#1951FC" stroke-width="0.540000007" opacity="0.19"></path>
                            <ellipse id="Oval" stroke="#1951FC" stroke-width="0.540000007" opacity="0.22" cx="69.5022624" cy="47.5632287" rx="1.2760181" ry="1.2715994"></ellipse>
                            <ellipse id="Oval" stroke="#1951FC" stroke-width="0.540000007" opacity="0.22" cx="49.3031674" cy="47.5632287" rx="1.2760181" ry="1.2715994"></ellipse>
                            <path d="M57.7466063,72.3188341 L53.4298643,72.4811659 C53.0769231,72.4811659 52.8054299,72.7787743 52.8054299,73.1304933 L52.8054299,73.6445441 C52.8054299,73.9962631 53.1040724,74.2938714 53.4570136,74.2938714 L55.6561086,74.2938714" id="Shape" stroke="#1951FC" stroke-width="0.5"></path>
                            <path d="M57.5022624,72.5893871 L53.3755656,72.7246637 C53.0497738,72.7246637 52.7782805,72.9411061 52.7782805,73.2116592 L52.7782805,73.5904335 C52.7782805,73.8609865 53.0497738,74.077429 53.3755656,74.077429 L55.4932127,74.077429" id="Shape" stroke-opacity="0.31" stroke="#1951FC" stroke-width="0.5"></path>
                            <path d="M59.8642534,72.1835575 C59.8642534,72.1835575 63.4479638,72.2376682 64.9411765,72.4270553 C65.2941176,72.4811659 65.5656109,72.7787743 65.5656109,73.1304933 L65.5656109,73.5092676 C65.5656109,73.8609865 65.2941176,74.1585949 64.9140271,74.1856502 L62.7963801,74.2938714" id="Shape" stroke="#142A51" stroke-width="0.5" opacity="0.22"></path>
                            <path d="M62.0361991,74.2668161 C62.0361991,74.2668161 61.4932127,78.1898356 61.6832579,84.6289985 C61.9547511,90.7164425 61.5475113,92.4209268 64.0180995,93.9089686" id="Shape" stroke="#142A51" stroke-width="0.5" opacity="0.22"></path>
                            <path d="M62.3076923,74.2668161 C62.3076923,74.2668161 61.7647059,78.1898356 61.9547511,84.6289985 C62.2262443,90.7164425 61.8190045,92.4209268 64.2895928,93.9089686" id="Shape" stroke="#1951FC" stroke-width="0.5" opacity="0.28"></path>
                            <path d="M62.8506787,75.7819133 C62.8506787,75.7819133 62.3076923,79.4073244 62.4977376,85.3324365 C62.7692308,90.9599402 62.361991,92.5020927 64.8325792,93.8819133" id="Shape" stroke="#FFFFFF" stroke-width="0.5"></path>
                            <path d="M57.3665158,76.2147982 C57.3665158,76.2147982 57.638009,89.2825112 57.3665158,90.5541106 C57.0950226,91.82571 56.0904977,93.9901345 53.8371041,94.6124066" id="Shape" stroke="#142A51" stroke-width="0.5" opacity="0.22"></path>
                            <path d="M57.0950226,76.2147982 C57.0950226,76.2147982 57.3665158,89.2825112 57.0950226,90.5541106 C56.8235294,91.82571 55.8190045,93.9901345 53.5656109,94.6124066" id="Shape" stroke="#1951FC" stroke-width="0.5" opacity="0.28"></path>
                            <path d="M56.5520362,78.6227205 C56.5520362,78.6227205 56.8235294,89.9859492 56.5520362,91.0952167 C56.280543,92.2044843 55.2760181,94.0713004 53.0226244,94.6124066" id="Shape" stroke="#FFFFFF" stroke-width="0.5"></path>
                            <ellipse id="Oval" stroke="#142A51" stroke-width="0.5" opacity="0.14" cx="60.3257919" cy="107.815396" rx="3.58371041" ry="3.57130045"></ellipse>
                            <path d="M64.4253394,110.196263 C64.4253394,110.196263 63.0678733,111.467862 62.8506787,116.418984 C62.6334842,121.370105 62.8506787,127.051719 62.8506787,127.051719" id="Shape" stroke="#142A51" stroke-width="0.5" opacity="0.14"></path>
                            <path d="M55.1945701,110.926756 C55.1945701,110.926756 56.9049774,112.739462 56.7420814,115.363827 C56.5520362,117.988191 56.7420814,125.996562 56.7420814,125.996562" id="Shape" stroke="#142A51" stroke-width="0.5" opacity="0.14"></path>
                            <path d="M70.0723982,140.07728 L49.4932127,140.07728 C49.3031674,140.07728 49.1402715,139.840437 49.1402715,139.564122 L49.1402715,139.090437 C49.1402715,138.814122 49.3031674,138.57728 49.4932127,138.57728 L70.0723982,138.57728 C70.2624434,138.57728 70.4253394,138.814122 70.4253394,139.090437 L70.4253394,139.564122 C70.4253394,139.840437 70.2895928,140.07728 70.0723982,140.07728 L70.0723982,140.07728 Z" id="Shape" fill="#333435"></path>
                            <path d="M73.0045249,140.07728 L71.3484163,140.07728 C71.158371,140.07728 70.9954751,139.840437 70.9954751,139.564122 L70.9954751,139.090437 C70.9954751,138.814122 71.158371,138.57728 71.3484163,138.57728 L73.0045249,138.57728 C73.1945701,138.57728 73.3574661,138.814122 73.3574661,139.090437 L73.3574661,139.564122 C73.3846154,139.840437 73.2217195,140.07728 73.0045249,140.07728 L73.0045249,140.07728 Z" id="Shape" fill="#333435"></path>
                            <path d="M70.0723982,138.523169 L49.4932127,138.523169 C49.3031674,138.523169 49.1402715,138.360837 49.1402715,138.17145 L49.1402715,137.846786 C49.1402715,137.657399 49.3031674,137.495067 49.4932127,137.495067 L70.0723982,137.495067 C70.2624434,137.495067 70.4253394,137.657399 70.4253394,137.846786 L70.4253394,138.17145 C70.4253394,138.360837 70.2895928,138.523169 70.0723982,138.523169 L70.0723982,138.523169 Z" id="Shape" fill="#220052" opacity="0.26"></path>
                            <path d="M73.0045249,138.523169 L71.3484163,138.523169 C71.158371,138.523169 70.9954751,138.360837 70.9954751,138.17145 L70.9954751,137.846786 C70.9954751,137.657399 71.158371,137.495067 71.3484163,137.495067 L73.0045249,137.495067 C73.1945701,137.495067 73.3574661,137.657399 73.3574661,137.846786 L73.3574661,138.17145 C73.3846154,138.360837 73.2217195,138.523169 73.0045249,138.523169 L73.0045249,138.523169 Z" id="Shape" fill="#1951FC" opacity="0.26"></path>
                            <path d="M42.8687783,143.122571 L81.2307692,143.122571 C82.1538462,143.122571 83.0497738,143.393124 83.7556561,143.93423 C84.5972851,144.583558 85.438914,145.71988 85.3303167,147.667862 C85.1945701,150.075785 83.5113122,151.049776 82.2624434,151.455605 C82.0180995,151.536771 82.0180995,151.88849 82.2624434,151.969656 C83.5656109,152.402541 85.3303167,153.538864 85.3303167,156.433782 C85.3303167,158.787593 83.8099548,159.896861 82.6153846,160.383857 C82.1809955,160.573244 82.1538462,161.141405 82.5339367,161.384903 C83.7828054,162.115396 85.4660633,163.576383 85.3031674,166.146637 C85.2217195,167.364126 84.7058824,168.311061 84.0542986,169.014499 C82.9954751,170.123767 81.5022624,170.718984 79.9547511,170.718984 L43.520362,170.718984 C42,170.718984 40.5339367,170.042601 39.638009,168.798057 C39.0950226,168.040508 38.6877828,167.012407 38.7692308,165.632586 C38.9049774,163.008221 40.6696833,161.926009 41.8642534,161.466069 C42.1900452,161.357848 42.1900452,160.897907 41.8914027,160.762631 C40.6153846,160.167414 38.7420814,158.814649 38.7420814,156.163229 C38.7420814,153.755306 40.3710407,152.646039 41.6742081,152.159043 C42.0542986,152.023767 42.0542986,151.482661 41.6742081,151.347384 C40.2895928,150.779223 38.4977376,149.534679 38.7420814,146.693871 C38.9049774,142.824963 42.8687783,143.122571 42.8687783,143.122571 L42.8687783,143.122571 Z" id="Shape" stroke="#333435" stroke-width="1.5" fill="#FB2F51"></path>
                            <path d="M44.630152,143.663677 L80.7436246,143.663677 C80.7436246,143.663677 83.995673,144.34006 83.7858634,147.992526 C83.6809586,150.10284 82.3434226,151.049776 81.2419223,151.482661 C80.927208,151.590882 80.927208,152.050822 81.2156961,152.186099 C82.3696488,152.646039 83.7858634,153.755306 83.7858634,156.325561 C83.7858634,158.51704 82.4221012,159.572197 81.3206009,160.059193 C80.9009818,160.24858 80.8747556,160.816741 81.2681485,161.060239 C82.4221012,161.763677 83.9169944,163.170553 83.7858634,165.55142 C83.6547324,167.79701 81.9500296,169.014499 80.9009818,169.555605 C80.4551364,169.772048 79.9830649,169.907324 79.4847672,169.907324 L44.0794018,169.907324 C44.0794018,169.907324 40.6175439,168.852167 40.8273535,165.064425 C40.9584845,162.656502 42.50583,161.601345 43.6073303,161.16846 C43.9220447,161.033184 43.9482709,160.573244 43.6335565,160.410912 C42.4796039,159.815695 40.8011273,158.544096 40.8273535,156.082063 C40.8273535,153.62003 42.5845086,152.591928 43.8171399,152.186099 C44.0794018,152.104933 44.0794018,151.699103 43.8171399,151.617937 C42.50583,151.130942 40.5913177,149.940508 40.8273535,147.072646 C40.9584845,143.420179 44.630152,143.663677 44.630152,143.663677 L44.630152,143.663677 Z" id="Shape" stroke="#1D2128" stroke-width="1.5" opacity="0.17"></path>
                            <path d="M48.7873303,173.153961 L75.5837104,173.153961 C76.0180995,173.153961 76.2352941,173.640957 75.9909502,173.992676 C74.4162896,175.913602 69.8552036,180.54006 62.0904977,180.783558 C54.6244344,180.783558 49.9819005,175.967713 48.4072398,173.992676 C48.1085973,173.640957 48.3529412,173.153961 48.7873303,173.153961 L48.7873303,173.153961 Z" id="Shape" stroke="#333435" stroke-width="1.5" fill="#FB2F51"></path>
                            <path d="M74.8235294,173.776233 C75.2307692,173.776233 75.4479638,173.209118 75.1764706,173.479671 C73.7104072,175.130045 69.5022624,179.08012 62.280543,179.296562 C55.3574661,179.296562 51.040724,175.184155 49.60181,173.479671 C49.3574661,173.182063 49.5746606,173.776233 49.9819005,173.776233 L74.8235294,173.776233 Z" id="Shape" stroke="#333435" stroke-width="1.5" fill="#FB2F51" opacity="0.26"></path>
                            <path d="M77.0769231,153.701196 L48.7330317,153.701196 C47.3755656,153.701196 46.2895928,152.618984 46.2895928,151.266218 L46.2895928,150.96861 C46.2895928,149.615845 47.3755656,148.533632 48.7330317,148.533632 L77.0769231,148.533632 C78.4343891,148.533632 79.520362,149.615845 79.520362,150.96861 L79.520362,151.266218 C79.520362,152.618984 78.4343891,153.701196 77.0769231,153.701196 L77.0769231,153.701196 Z" id="Shape" fill="#FFFFFF"></path>
                            <path d="M70.3710407,164.144544 L48.760181,164.144544 C47.4027149,164.144544 46.3167421,163.062332 46.3167421,161.709567 L46.3167421,161.411958 C46.3167421,160.059193 47.4027149,158.976981 48.760181,158.976981 L70.3710407,158.976981 C71.7285068,158.976981 72.8144796,160.059193 72.8144796,161.411958 L72.8144796,161.709567 C72.8144796,163.035277 71.7013575,164.144544 70.3710407,164.144544 L70.3710407,164.144544 Z" id="Shape" fill="#FFFFFF"></path>
                            <path d="M70.6968326,165.698655 L48.2443439,165.698655 C47.9728507,165.698655 47.7556561,165.365321 47.7556561,164.948655 L47.7556561,164.948655 C47.7556561,164.531988 47.9728507,164.198655 48.2443439,164.198655 L70.6968326,164.198655 C70.9683258,164.198655 71.1855204,164.531988 71.1855204,164.948655 L71.1855204,164.948655 C71.1855204,165.365321 70.9683258,165.698655 70.6968326,165.698655 L70.6968326,165.698655 Z" id="Shape" fill="#2D2D2D" opacity="0.31"></path>
                            <path d="M77.3755656,155.147085 L48.2714932,155.147085 C48,155.147085 47.7828054,154.813752 47.7828054,154.397085 L47.7828054,154.397085 C47.7828054,153.980419 48,153.647085 48.2714932,153.647085 L77.3755656,153.647085 C77.6470588,153.647085 77.8642534,153.980419 77.8642534,154.397085 L77.8642534,154.397085 C77.8642534,154.813752 77.6199095,155.147085 77.3755656,155.147085 L77.3755656,155.147085 Z" id="Shape" fill="#2D2D2D" opacity="0.31"></path>
                            <path d="M80.361991,145.151719 C80.361991,145.151719 81.719457,145.638714 81.5837104,147.586697" id="Shape" stroke="#FFFFFF" stroke-width="1.5" stroke-linecap="round"></path>
                            <path d="M81.5565611,166.958296 C81.5565611,166.958296 81.2850679,168.365172 79.3031674,168.500448" id="Shape" stroke="#FFFFFF" stroke-width="1.5" stroke-linecap="round"></path>
                            <path d="M71.1538462,175.427653 C71.1538462,175.427653 68.8461538,177.402691 64.7466063,178.052018" id="Shape" stroke="#FFFFFF" stroke-width="1.5" stroke-linecap="round"></path>
                            <path d="M77.0769231,135.276532 C77.0769231,135.276532 87.040724,135.303587 87.8280543,123.64275 C87.8280543,123.64275 84.0542986,134.924813 77.0769231,135.276532 L77.0769231,135.276532 Z" id="Shape"></path>
                            <path d="M90.9502262,128.404484 C90.9502262,128.404484 90.6515837,138.252616 80.361991,138.57728" id="Shape" stroke="#333435" stroke-width="1.5" stroke-linecap="round"></path>
                            <path d="M38.1176471,64.3104634 L43.6561086,66.4478326 C43.6561086,66.4478326 44.5791855,68.4499253 44.6877828,70.5872945 C44.7963801,72.7246637 45.8280543,79.1367713 45.8280543,79.1367713 L50.5248869,84.5478326 C50.5248869,84.5478326 51.5294118,85.3594918 52.561086,82.8433483 C53.5927602,80.3272048 60.7873303,68.1523169 60.7873303,68.1523169 C60.7873303,68.1523169 61.520362,66.4748879 63.6923077,66.7183857 L78.8959276,65.4467862 C78.8959276,65.4467862 80.2262443,65.9337818 81.9366516,63.2823617 C83.6470588,60.6309417 86.8235294,54.5434978 89.8914027,50.4310912 C93.3936652,46.7515695 97.5746606,43.8566517 97.5746606,43.8566517 C97.5746606,43.8566517 98.8778281,43.1261584 100.642534,43.4508221 C102.542986,43.5590433 104.171946,41.8004484 104.38914,41.3405082 C104.823529,40.3665172 106.153846,32.141704 106.153846,32.141704 C106.153846,32.141704 106.126697,28.4892377 105.692308,26.7306428" id="Shape" stroke="#1951FC" stroke-width="1.08000001" opacity="0.28"></path>
                            <path d="M102.298643,1.89387145 C102.298643,1.89387145 112.208145,12.6618834 116.036199,25.2426009 C116.171946,25.6484305 116.307692,26.0542601 116.443439,26.4600897 C120.434389,37.6609865 118.778281,48.3207773 118.452489,50.241704 L118.39819,50.7016442 C118.343891,51.0263079 118.316742,51.1886398 118.289593,51.5133034 C118.153846,53.9753363 116.742081,62.4165919 112.561086,69.2615845 C112.289593,69.6944694 112.0181,70.1544096 111.773756,70.6143498 C107.104072,79.3532138 100.914027,90.3106129 100.914027,90.3106129" id="Shape" stroke="#1951FC" stroke-width="1.08000001" opacity="0.3"></path>
                            <path d="M38.8778281,64.9327354 L39.6923077,61.9566517 L57.719457,53.7588939 C57.719457,53.7588939 59.1855204,53.2177877 59.8371041,51.1886398 C60.5158371,49.1594918 64.3710407,34.8201794 64.3710407,34.8201794 C64.3710407,34.8201794 64.7239819,34.0085202 65.6742081,33.2509716 C66.6244344,32.493423 80.199095,20.8055306 80.199095,20.8055306 C80.199095,20.8055306 81.0135747,20.1832586 81.3665158,21.1572496 C81.719457,22.1312407 90.5972851,36.5787743 90.5972851,36.5787743 C90.5972851,36.5787743 91.7647059,38.4185351 93.1221719,37.7962631 C94.479638,37.173991 105.339367,27.6505232 105.339367,27.6505232" id="Shape" stroke="#1951FC" stroke-width="1.08000001" opacity="0.28"></path>
                            <path d="M65.5656109,68.9369208 C65.5656109,68.9369208 63.719457,74.0233184 62.361991,74.0233184" id="Shape" stroke-opacity="0.24" stroke="#142A51" stroke-width="0.540000007" opacity="0.46"></path>
                            <path d="M87.8280543,90.2835575 C87.8280543,90.2835575 84.4343891,98.3460389 84.3257919,101.646786 C84.3529412,104.974589 84.3257919,112.739462 84.3257919,112.739462 C84.3257919,112.739462 83.6199095,101.376233 83.8371041,99.4282511 C84.0542986,97.561435 85.3031674,93.9089686 87.8280543,90.2835575 L87.8280543,90.2835575 Z" id="Shape" fill="#E5E5E5" opacity="0.5"></path>
                            <path d="M88.6425339,90.2835575 C88.6425339,90.2835575 85.2488688,98.3460389 85.1402715,101.646786 C85.1674208,104.974589 85.1402715,112.739462 85.1402715,112.739462 C85.1402715,112.739462 84.4343891,101.376233 84.6515837,99.4282511 C84.8687783,97.561435 86.1176471,93.9089686 88.6425339,90.2835575 L88.6425339,90.2835575 Z" id="Shape" fill="#1951FC" opacity="0.12"></path>
                            <path d="M112.126697,48.8618834 C112.126697,48.8618834 111.122172,63.1470852 100.072398,78.9473842 C89.0497738,94.7747384 108.325792,69.0721973 112.126697,48.8618834 L112.126697,48.8618834 Z" id="Shape" fill="#E8E9EA" opacity="0.47"></path>
                            <path d="M30.2171946,121.126607 C30.2171946,121.126607 28.7511312,133.653214 38.9864253,135.249477 C39.4208145,135.492975 29.7013575,133.112108 30.2171946,121.126607 L30.2171946,121.126607 Z" id="Shape" fill="#1951FC" opacity="0.35"></path>
                            <path d="M30.760181,120.856054 C30.760181,120.856054 29.2941176,133.382661 39.5294118,134.978924 C39.9638009,135.222422 30.2443439,132.841555 30.760181,120.856054 L30.760181,120.856054 Z" id="Shape" fill="#1951FC" opacity="0.22"></path>
                            <path d="M50.4977376,84.9266069 C50.3348416,84.8724963 47.0497738,74.8079223 47.0497738,74.8079223 L43.3031674,63.2011958 L40.6696833,54.8952167 L39.7466063,52.1355755 C39.7466063,52.1355755 43.6832579,52.0273543 46.7239819,49.267713 C47.5927602,48.5372197 47.7013575,47.9961136 47.7013575,47.9961136 C47.7013575,47.9961136 45.0135747,51.6756353 39.7466063,51.7568012 C39.5837104,51.6215247 39.0135747,49.3759342 38.0361991,50.1875934 C37.8190045,50.8639761 38.3891403,54.2458894 38.9321267,55.355157 C39.4751131,56.4644245 39.5294118,57.1408072 39.5294118,57.1408072 L40.4253394,57.1408072 C40.4253394,57.1408072 41.8642534,62.0107623 42.1357466,62.7142003 C42.4072398,63.4176383 45.3393665,72.5893871 45.5022624,72.9681614 C45.6651584,73.3469357 48.8687783,83.1409567 48.9502262,83.3573991 C49.0316742,83.4926756 49.4660633,83.9796712 49.6289593,84.2231689" id="Shape" fill="#9AAAC1"></path>
                            <path d="M51.7737557,85.1430493 C51.6108597,85.0889387 48.2171946,74.9702541 48.2171946,74.9702541 L44.3348416,63.309417 L41.6199095,54.9763827 L40.6696833,52.1896861 C40.6696833,52.1896861 45.3393665,51.3780269 47.239819,48.915994 C47.4298643,48.7266069 47.5927602,48.1313901 47.5927602,48.1313901 C47.5927602,48.1313901 45.7737557,51.2698057 40.6425339,51.7568012 C40.479638,51.6215247 39.8823529,49.3759342 38.9049774,50.1875934 C38.6877828,50.8639761 39.3122172,54.2729447 39.8552036,55.3822123 C40.39819,56.4914798 40.479638,57.1678625 40.479638,57.1678625 L41.3755656,57.1678625 C41.3755656,57.1678625 42.8687783,62.0648729 43.1402715,62.7683109 C43.4117647,63.4717489 46.4253394,72.6976084 46.6153846,73.0493274 C46.7782805,73.4281016 50.0633484,83.2491779 50.1719457,83.4656203 C50.2533937,83.6008969 50.6877828,84.0878924 50.8506787,84.3313901" id="Shape" fill="#FB2F51" opacity="0.12"></path>
                            <path d="M48.4072398,43.1802691 C48.4072398,43.1802691 47.9728507,47.1032885 48.2986425,48.2666667 C48.6515837,49.4029895 52.1538462,65.5008969 52.2895928,65.690284 C52.39819,65.8526158 53.7285068,70.0732436 54.9502262,72.2376682 C55.3846154,72.9952167 56.0904977,73.5904335 56.9321267,73.8339312 C57.3393665,73.9692078 57.9909502,73.9692078 57.9909502,73.9692078" id="Shape" stroke="#FB2F51" stroke-width="0.540000007" opacity="0.22"></path>
                            <path d="M48.9502262,48.8348281 C48.9502262,48.8348281 57.638009,52.2167414 58.0452489,52.270852 C58.4524887,52.3249626 62.3348416,52.8119581 62.3348416,52.8119581" id="Shape" stroke="#1951FC" stroke-width="0.540000007" opacity="0.22"></path>
                        </g>
                    </g>
                </g>
            </g>
        </g>
    </g>
</svg>