<?xml version="1.0" encoding="UTF-8"?><svg width="120px" height="33px" viewBox="0 0 120 33" xmlns="http://www.w3.org/2000/svg" xmlns:xlink="http://www.w3.org/1999/xlink"><g transform="translate(0 .5)" fill="none" fill-rule="evenodd"><path d="M20 2.236L5.618 31h28.764L20 2.236z" stroke="#FFFFFF" stroke-width="2"/><path fill="#FFFFFF" d="M12 2l12 24H0M49.392 21.6H45.92l4.336-11.2h2.976l4.448 11.2h-3.568l-.72-1.872h-3.328l-.672 1.872zm2.368-7.648l-1.168 3.152h2.24l-1.072-3.152zM65.792 21.6h-5.264V10.4h5.264c3.264 0 5.696 2.512 5.696 5.6 0 3.104-2.432 5.6-5.696 5.6zm-.464-8.32h-1.44v5.44h1.44c1.728 0 2.8-1.072 2.8-2.72 0-1.664-1.072-2.736-2.8-2.72zm15.04 8.496c-3.776 0-6.048-2.656-6.048-5.776 0-3.12 2.272-5.776 6.048-5.776 3.776 0 6.048 2.656 6.048 5.776 0 3.12-2.272 5.776-6.048 5.776zm0-2.88c1.712 0 2.688-1.328 2.688-2.896 0-1.568-.976-2.896-2.688-2.896-1.712 0-2.688 1.328-2.688 2.896 0 1.568.976 2.896 2.688 2.896zM96.912 21.6h2.608V10.4h-3.36v5.248L92.432 10.4h-2.624v11.2h3.36v-5.344l3.744 5.344zm9.92-11.2h-3.36v11.2h3.36V10.4zm3.264 7.872c.336 2.256 2.096 3.504 4.688 3.504 2.432 0 4.576-1.088 4.576-3.472-.048-1.584-.832-2.672-3.328-3.536l-1.248-.432c-.688-.24-.912-.528-.912-.848 0-.48.512-.704 1.056-.704.8 0 1.12.496 1.344 1.12l2.688-.768c-.64-1.872-1.984-2.912-4.096-2.912-2.448 0-4.272 1.392-4.272 3.552.032 2.384 2.752 3.104 3.296 3.28l1.264.48c.8.256.944.608.944.88 0 .544-.544.8-1.312.8-1.104 0-1.76-.544-1.984-1.568l-2.704.624z"/></g></svg>
