<?xml version="1.0" encoding="UTF-8"?><svg width="58px" height="50.2px" viewBox="0 0 254 219" xmlns="http://www.w3.org/2000/svg" xmlns:xlink="http://www.w3.org/1999/xlink"><g transform="translate(0 -.2)" fill="#FFFFFF" fill-rule="evenodd"><path d="M81 128.2h109l-55-109-54 109zm55-128l68 137H67l69-137z" fill-rule="nonzero"/><path d="M101 8.2l51 102H50M12.185 218.485H.195l14.973-38.677h10.277l15.36 38.677h-12.32l-2.487-6.465H14.505l-2.32 6.465zm8.177-26.41l-4.033 10.884h7.734l-3.702-10.886zm48.457 26.41H50.64v-38.677h18.18c11.27 0 19.67 8.674 19.67 19.338 0 10.72-8.4 19.34-19.67 19.34zm-1.604-28.732h-4.972v18.786h4.972c5.968 0 9.67-3.703 9.67-9.394 0-5.746-3.702-9.448-9.67-9.393zm51.938 29.34c-13.04 0-20.885-9.172-20.885-19.947 0-10.774 7.844-19.946 20.884-19.946s20.886 9.172 20.886 19.946c0 10.775-7.846 19.947-20.886 19.947zm0-9.946c5.912 0 9.283-4.586 9.283-10 0-5.415-3.37-10-9.283-10-5.912 0-9.282 4.585-9.282 10 0 5.414 3.37 10 9.282 10zm57.132 9.338h9.006v-38.677H173.69v18.123l-12.875-18.122h-9.062v38.677h11.603V200.03l12.93 18.455zm34.256-38.677H198.94v38.677h11.602v-38.677zm11.272 27.184c1.16 7.79 7.238 12.1 16.19 12.1 8.397 0 15.8-3.757 15.8-11.99-.164-5.47-2.872-9.227-11.49-12.21l-4.31-1.492c-2.377-.83-3.15-1.823-3.15-2.928 0-1.658 1.768-2.432 3.646-2.432 2.763 0 3.868 1.713 4.642 3.868l9.282-2.652c-2.21-6.465-6.85-10.056-14.145-10.056-8.454 0-14.753 4.807-14.753 12.266.11 8.233 9.503 10.72 11.382 11.327l4.364 1.658c2.762.885 3.26 2.1 3.26 3.04 0 1.878-1.88 2.762-4.53 2.762-3.813 0-6.08-1.878-6.852-5.415l-9.338 2.155z"/></g></svg>
