<?xml version="1.0" encoding="UTF-8"?><svg width="30px" height="30px" viewBox="0 0 30 30" xmlns="http://www.w3.org/2000/svg" xmlns:xlink="http://www.w3.org/1999/xlink"><g fill-rule="nonzero" fill="#4800ad"><path d="M15 30C6.714 30 0 23.286 0 15S6.714 0 15 0s15 6.714 15 15-6.714 15-15 15zm0-28.57C7.5 1.43 1.43 7.5 1.43 15S7.5 28.57 15 28.57 28.57 22.5 28.57 15 22.5 1.43 15 1.43z"/><g transform="translate(13.93 8.214)"><path d="M1.07 13.57c-.39 0-.713-.32-.713-.713V4.643c0-.393.322-.714.714-.714.394 0 .716.32.716.713v8.214c0 .393-.322.714-.715.714z"/><circle cx="1.07142857" cy="1.07142857" r="1"/><path d="M1.07 2.143C.465 2.143 0 1.68 0 1.07 0 .465.464 0 1.07 0c.61 0 1.073.464 1.073 1.07 0 .61-.464 1.073-1.072 1.073zm0-1.43c-.213 0-.356.144-.356.358 0 .216.143.36.357.36.216 0 .36-.144.36-.36 0-.213-.144-.356-.36-.356z"/></g></g></svg>
