<?xml version="1.0" encoding="UTF-8" standalone="no"?><svg width="25px" height="30px" viewBox="0 0 25 30" xmlns="http://www.w3.org/2000/svg" xmlns:xlink="http://www.w3.org/1999/xlink"><path d="M13.363 1.978l-11.36 14.48 11 .01-.818 11.522 10.813-15.546-11.234-.01 1.6-10.456zm-2.65 27.378c-.377-.406-.563-.94-.522-1.508l.666-9.378H2.002c-.772 0-1.46-.433-1.797-1.13-.34-.697-.252-1.51.226-2.12L11.795.736c.757-.966 2.315-.972 3.096-.06.38.443.54 1.014.45 1.606l-1.246 8.153H23c.746 0 1.425.413 1.77 1.075.348.667.298 1.464-.132 2.08L13.824 29.14c-.38.548-.974.86-1.627.86-.562 0-1.103-.234-1.483-.644z" fill="#00C79B" fill-rule="evenodd"/></svg>
