<?xml version="1.0" encoding="UTF-8" standalone="no"?>
<svg width="25px" height="30px" viewBox="0 0 25 30" version="1.1" xmlns="http://www.w3.org/2000/svg" xmlns:xlink="http://www.w3.org/1999/xlink">
    <defs></defs>
    <g id="Page-1" stroke="none" stroke-width="1" fill="none" fill-rule="evenodd">
        <g id="Icons" transform="translate(-23.000000, -740.000000)" fill="#00C79B">
            <path d="M36.3630166,741.9776 L25.0040166,756.4566 L36.0030166,756.4666 L35.1850166,767.9896 L45.9980166,752.4436 L34.7640166,752.4346 L36.3630166,741.9776 Z M33.7140166,769.3556 C33.3360166,768.9496 33.1500166,768.4146 33.1910166,767.8476 L33.8560166,758.4696 L25.0020166,758.4696 C24.2300166,758.4696 23.5420166,758.0366 23.2050166,757.3406 C22.8650166,756.6426 22.9530166,755.8306 23.4310166,755.2206 L34.7940166,740.7346 C35.5510166,739.7686 37.1090166,739.7626 37.8900166,740.6736 C38.2700166,741.1176 38.4300166,741.6886 38.3400166,742.2806 L37.0940166,750.4326 L46.0000166,750.4326 C46.7460166,750.4326 47.4250166,750.8456 47.7710166,751.5076 C48.1180166,752.1746 48.0680166,752.9716 47.6380166,753.5876 L36.8240166,769.1396 C36.4430166,769.6876 35.8500166,769.9996 35.1970166,769.9996 C34.6350166,769.9996 34.0940166,769.7656 33.7140166,769.3556 Z" id="Icon"></path>
        </g>
    </g>
</svg>
