<svg width="40" height="40" viewBox="0 0 40 40" xmlns="http://www.w3.org/2000/svg" xmlns:xlink="http://www.w3.org/1999/xlink"><defs><filter x="-16.9%" y="-45.8%" width="133.9%" height="208.3%" filterUnits="objectBoundingBox" id="a"><feOffset dy="10" in="SourceAlpha" result="shadowOffsetOuter1"/><feGaussianBlur stdDeviation="20" in="shadowOffsetOuter1" result="shadowBlurOuter1"/><feColorMatrix values="0 0 0 0 0 0 0 0 0 0 0 0 0 0 0 0 0 0 0.05 0" in="shadowBlurOuter1" result="shadowMatrixOuter1"/><feOffset in="SourceAlpha" result="shadowOffsetOuter2"/><feGaussianBlur stdDeviation="2" in="shadowOffsetOuter2" result="shadowBlurOuter2"/><feColorMatrix values="0 0 0 0 0 0 0 0 0 0 0 0 0 0 0 0 0 0 0.05 0" in="shadowBlurOuter2" result="shadowMatrixOuter2"/><feMerge><feMergeNode in="shadowMatrixOuter1"/><feMergeNode in="shadowMatrixOuter2"/></feMerge></filter><rect id="b" x="0" y="960" width="384" height="120" rx="6"/></defs><g fill="none" fill-rule="evenodd"><g transform="translate(-40 -1000)"><use fill="#000" filter="url(#a)" xlink:href="#b"/><use fill="#FFF" xlink:href="#b"/></g><path d="M0 0h40v40H0z"/><g stroke-linecap="round" stroke-linejoin="round" stroke-width="2.5"><path d="M20 1.25C9.625 1.25 1.25 9.625 1.25 20S9.625 38.75 20 38.75 38.75 30.375 38.75 20 30.375 1.25 20 1.25z" stroke="#17161A"/><path d="M6.25 20c0-7.563 6.188-13.75 13.75-13.75 2.875 0 5.563.875 7.813 2.438L8.688 27.811A13.62 13.62 0 016.25 20zM20 33.75a13.62 13.62 0 01-7.813-2.438l19.126-19.125A13.62 13.62 0 0133.75 20c0 7.563-6.188 13.75-13.75 13.75z" stroke="#5A45FF"/></g></g></svg>
