<svg width="40" height="40" fill="none" xmlns="http://www.w3.org/2000/svg"><rect x="3" y="23" width="29" height="14" rx="3.333" stroke="#17161A" stroke-width="2.5" stroke-linecap="round" stroke-linejoin="round"/><path d="M9 30h7M25 30h1" stroke="#5A45FF" stroke-width="2.5" stroke-linecap="round" stroke-linejoin="round"/><rect x="2.996" y="8.667" width="29" height="14" rx="3.333" stroke="#17161A" stroke-width="2.5" stroke-linecap="round" stroke-linejoin="round"/><path d="M8.996 15.667h7M28.996 15.667h1" stroke="#5A45FF" stroke-width="2.5" stroke-linecap="round" stroke-linejoin="round"/><path fill-rule="evenodd" clip-rule="evenodd" d="M30 18a8 8 0 100-16 8 8 0 000 16z" fill="#fff"/><path clip-rule="evenodd" d="M30 18a8 8 0 100-16 8 8 0 000 16z" stroke="#17161A" stroke-width="4" stroke-linecap="round" stroke-linejoin="round"/><path clip-rule="evenodd" d="M30 18a8 8 0 100-16 8 8 0 000 16z" stroke="#fff" stroke-width="4" stroke-linecap="round" stroke-linejoin="round"/><path d="M30 7v6M27 10h6" stroke="#5A45FF" stroke-width="2.5" stroke-linecap="round" stroke-linejoin="round"/></svg>
