<svg width="40" height="40" fill="none" xmlns="http://www.w3.org/2000/svg"><rect x="1.666" y="5.667" width="37" height="13.333" rx="1" stroke="#5A45FF" stroke-width="2.5" stroke-linecap="round" stroke-linejoin="round"/><path fill-rule="evenodd" clip-rule="evenodd" d="M8.5 15a2.5 2.5 0 100-5 2.5 2.5 0 000 5zM16.5 15a2.5 2.5 0 100-5 2.5 2.5 0 000 5zM24.5 15a2.5 2.5 0 100-5 2.5 2.5 0 000 5zM32.5 15a2.5 2.5 0 100-5 2.5 2.5 0 000 5z" fill="#17161A"/><rect x="18.332" y="26" width="20" height="8" rx="1" stroke="#17161A" stroke-width="2.5" stroke-linecap="round" stroke-linejoin="round"/></svg>
