<svg width="40" height="40" fill="none" xmlns="http://www.w3.org/2000/svg"><path d="M35 35.059V11.25l-10-10H5v33.809" stroke="#17161A" stroke-width="2.5" stroke-linecap="round" stroke-linejoin="round"/><path clip-rule="evenodd" d="M25 1.25v10h10l-10-10z" stroke="#5A45FF" stroke-width="2.5" stroke-linecap="round" stroke-linejoin="round"/><path d="M5 33.75v5h30v-5" stroke="#17161A" stroke-width="2.5" stroke-linecap="round" stroke-linejoin="round"/><path d="M10.095 30.244a3.945 3.945 0 01-.845-.087v-1.279l.281.056c.106.022.214.033.322.032a.658.658 0 00.578-.246c.138-.258.198-.55.174-.84v-5.63h1.638v5.489a2.834 2.834 0 01-.537 1.873 1.993 1.993 0 01-1.61.632zM17.249 26.397c.006.342-.088.677-.27.964-.191.291-.462.519-.778.655a2.838 2.838 0 01-1.192.233 4.752 4.752 0 01-.958-.081 3.486 3.486 0 01-.801-.286v-1.405c.293.154.6.275.919.36.285.083.58.127.876.13.175.014.35-.028.5-.12a.378.378 0 00.096-.52.769.769 0 00-.207-.18 9.188 9.188 0 00-.76-.376 3.602 3.602 0 01-.84-.503 1.536 1.536 0 01-.414-.559 1.884 1.884 0 01-.135-.746c-.021-.49.193-.96.575-1.258a2.499 2.499 0 011.58-.45c.626.007 1.242.15 1.81.418l-.474 1.219a3.365 3.365 0 00-1.383-.377.712.712 0 00-.438.109.329.329 0 00-.137.268.39.39 0 00.174.306c.301.19.617.357.945.496.395.154.747.404 1.026.728.198.284.298.627.286.975z" fill="#5A45FF"/><path fill-rule="evenodd" clip-rule="evenodd" d="M22.48 27.48c.55-.623.822-1.423.762-2.232a3.033 3.033 0 00-.759-2.231 3.018 3.018 0 00-2.226-.76 3.033 3.033 0 00-2.23.76 2.998 2.998 0 00-.768 2.218 3.012 3.012 0 00.772 2.24c.592.54 1.398.82 2.219.768a3.02 3.02 0 002.23-.764zm-2.23-.546c-.828 0-1.241-.562-1.241-1.686 0-1.135.417-1.702 1.25-1.7.362-.022.711.135.923.415.236.39.344.838.31 1.287.034.445-.072.89-.306 1.277a1.09 1.09 0 01-.936.407z" fill="#5A45FF"/><path d="M30.246 28.25h-2.23l-2.3-4.227h-.033c.055.664.082 1.172.082 1.523v2.704H24.25v-6h2.222l2.298 4.17h.025c-.04-.605-.06-1.091-.06-1.457V22.25h1.515l-.004 6z" fill="#5A45FF"/></svg>
