<svg width="40" height="40" fill="none" xmlns="http://www.w3.org/2000/svg"><path clip-rule="evenodd" d="M24.436 29.482l-6.156-1.76a1.25 1.25 0 01-.895-1.025l-.519-3.63a7.5 7.5 0 004.384-6.817v-3.435A7.708 7.708 0 0013.981 5a7.5 7.5 0 00-7.731 7.5v3.75a7.5 7.5 0 004.384 6.816l-.519 3.631c-.07.489-.42.89-.895 1.025l-6.156 1.76a2.5 2.5 0 00-1.814 2.404v4.364h25v-4.364a2.5 2.5 0 00-1.814-2.404z" stroke="#17161A" stroke-width="2.5" stroke-linecap="round" stroke-linejoin="round"/><path d="M31.25 36.25h7.5v-6.797a2.5 2.5 0 00-1.894-2.427l-7.291-1.822a1.25 1.25 0 01-.934-1.037l-.515-3.6A7.5 7.5 0 0032.5 13.75v-3.435A7.708 7.708 0 0025.231 2.5a7.471 7.471 0 00-3.981 1" stroke="#5A45FF" stroke-width="2.5" stroke-linecap="round" stroke-linejoin="round"/></svg>
