<svg width="20" height="20" fill="none" xmlns="http://www.w3.org/2000/svg"><path fill-rule="evenodd" clip-rule="evenodd" d="M13.32 12.17l.012.167 4.168 4.168-.995.995-4.168-4.168-.168-.01a6.024 6.024 0 111.152-1.152zM3.909 8.524a4.617 4.617 0 109.233 0 4.617 4.617 0 00-9.233 0z" fill="currentColor"/><path d="M13.332 12.337l-.15.01a.15.15 0 00.044.096l.106-.106zm-.011-.167l-.12-.09a.15.15 0 00-.03.1l.15-.01zm4.179 4.335l.106.106a.15.15 0 000-.212l-.106.106zm-.995.995l-.106.106a.15.15 0 00.212 0l-.106-.106zm-4.168-4.168l.106-.106a.15.15 0 00-.097-.044l-.01.15zm-.168-.01l.01-.15a.15.15 0 00-.1.03l.09.12zM4.265 4.265l-.106-.106.106.106zm9.216 8.062l-.01-.167-.3.02.011.166.3-.02zm4.125 4.072l-4.168-4.168-.212.212 4.168 4.168.212-.212zm-.995 1.207l.995-.995-.212-.212-.995.995.212.212zm-4.38-4.168l4.168 4.168.212-.212-4.168-4.168-.212.212zm-.07.033l.167.01.018-.3-.168-.01-.018.3zm-8.288-.886a6.174 6.174 0 008.387.856l-.182-.239a5.874 5.874 0 01-7.98-.814l-.225.197zm.286-8.426a6.174 6.174 0 00-.286 8.426l.226-.197a5.874 5.874 0 01.272-8.016l-.212-.213zm8.425-.285a6.174 6.174 0 00-8.425.285l.212.213a5.874 5.874 0 018.016-.272l.197-.226zm.856 8.387a6.174 6.174 0 00-.856-8.387l-.197.226a5.874 5.874 0 01.814 7.98l.24.18zm-4.916.73c-2.467 0-4.466-2-4.466-4.467h-.3a4.767 4.767 0 004.766 4.767v-.3zm4.467-4.467c0 2.467-2 4.467-4.467 4.467v.3a4.767 4.767 0 004.767-4.767h-.3zM8.524 4.057c2.467 0 4.467 2 4.467 4.467h.3a4.767 4.767 0 00-4.767-4.767v.3zM4.058 8.524c0-2.467 2-4.467 4.466-4.467v-.3a4.767 4.767 0 00-4.766 4.767h.3z" fill="currentColor"/></svg>
