<svg width="40" height="40" fill="none" xmlns="http://www.w3.org/2000/svg"><path clip-rule="evenodd" d="M20 13.333c8.284 0 15-2.238 15-5 0-2.761-6.716-5-15-5-8.284 0-15 2.239-15 5 0 2.762 6.716 5 15 5z" stroke="#17161A" stroke-width="2.5" stroke-linecap="round" stroke-linejoin="round"/><path d="M35 20c0 2.767-6.667 5-15 5S5 22.767 5 20" stroke="#5A45FF" stroke-width="2.5" stroke-linecap="round" stroke-linejoin="round"/><path d="M5 20.333v11.334c0 2.766 6.667 5 15 5s15-2.234 15-5V20.333" stroke="#5A45FF" stroke-width="2.5" stroke-linecap="round" stroke-linejoin="round"/><path d="M5 8.333v7.334M35 8.333v7.334" stroke="#17161A" stroke-width="2.5" stroke-linecap="round" stroke-linejoin="round"/></svg>
