<?xml version="1.0" standalone="no"?>
<!DOCTYPE svg PUBLIC "-//W3C//DTD SVG 20010904//EN"
 "http://www.w3.org/TR/2001/REC-SVG-20010904/DTD/svg10.dtd">
<svg version="1.0" xmlns="http://www.w3.org/2000/svg"
 width="576.000000pt" height="576.000000pt" viewBox="0 0 576.000000 576.000000"
 preserveAspectRatio="xMidYMid meet">
<metadata>
Created by potrace 1.11, written by Peter Selinger 2001-2013
</metadata>
<g transform="translate(0.000000,576.000000) scale(0.100000,-0.100000)"
fill="#000000" stroke="none">
<path d="M2840 4720 c-195 -390 -357 -710 -360 -710 -3 0 -129 248 -280 550
-151 303 -277 550 -280 550 -4 0 -1920 -3824 -1920 -3833 0 -1 57 -1 127 1 71
2 133 3 138 3 17 0 295 -1 383 -1 45 -1 88 -1 95 -1 25 -1 194 1 206 3 3 0 11
0 16 -2 6 -1 43 -1 82 0 l73 1 -25 -48 c-13 -26 -121 -243 -239 -480 l-216
-433 2560 0 2560 0 -1277 2555 c-703 1405 -1280 2555 -1283 2555 -3 0 -165
-319 -360 -710z m2400 -4076 c0 -1 -74 -6 -87 -5 -26 2 -50 2 -121 1 -40 0
-77 2 -82 5 -5 3 -11 2 -14 -3 -3 -4 -30 -5 -61 -2 -31 3 -58 3 -60 -1 -3 -3
-22 -3 -42 1 -21 3 -49 3 -63 0 -14 -4 -34 -4 -44 0 -11 3 -39 3 -63 0 -23 -4
-43 -4 -43 -1 0 7 -98 6 -105 -1 -3 -2 -30 -1 -60 2 -31 3 -58 3 -60 -1 -3 -3
-22 -3 -42 1 -21 3 -49 3 -63 0 -14 -4 -34 -4 -44 0 -11 3 -39 3 -63 0 -23 -4
-43 -4 -43 -1 0 7 -98 6 -105 -1 -3 -2 -30 -1 -60 2 -31 3 -58 3 -60 -1 -3 -3
-22 -3 -42 1 -21 3 -49 3 -63 0 -14 -4 -34 -4 -44 0 -11 3 -39 3 -63 0 -23 -4
-43 -4 -43 -1 0 7 -98 6 -105 -1 -3 -2 -30 -1 -60 2 -31 3 -58 3 -60 -1 -3 -3
-22 -3 -42 1 -21 3 -49 3 -63 0 -14 -4 -34 -4 -44 0 -11 3 -39 3 -63 0 -23 -4
-43 -4 -43 -1 0 7 -98 6 -105 -1 -3 -2 -30 -1 -60 2 -31 3 -58 3 -60 -1 -3 -3
-22 -3 -42 1 -21 3 -49 3 -63 0 -14 -4 -34 -4 -44 0 -11 3 -39 3 -63 0 -23 -4
-43 -4 -43 -1 0 7 -98 6 -105 -1 -3 -2 -30 -1 -60 2 -31 3 -58 3 -60 -1 -3 -3
-22 -3 -42 1 -21 3 -49 3 -63 0 -14 -4 -34 -4 -44 0 -11 3 -39 3 -63 0 -23 -4
-43 -4 -43 -1 0 7 -98 6 -105 -1 -3 -2 -30 -1 -60 2 -31 3 -58 3 -60 -1 -3 -3
-22 -3 -42 1 -21 3 -49 3 -63 0 -14 -4 -34 -4 -44 0 -11 3 -39 3 -63 0 -23 -4
-43 -4 -43 -1 0 7 -98 6 -105 -1 -3 -2 -30 -1 -60 2 -31 3 -58 3 -61 -1 -3 -5
-10 -6 -17 -3 -22 8 -157 9 -157 1 0 -5 -5 -5 -11 -2 -5 4 -32 7 -59 7 l-49
-1 22 46 c12 25 83 168 157 317 l136 271 42 6 c23 3 46 2 52 -1 6 -4 33 -3 60
0 28 4 50 2 50 -2 0 -5 4 -7 9 -4 8 5 48 6 196 6 246 -2 266 -2 298 1 6 1 26
0 42 -1 28 -1 221 -2 255 -1 60 2 175 -1 182 -5 4 -3 8 -2 8 3 0 4 29 8 65 8
36 0 65 -2 65 -5 0 -6 99 -4 105 2 3 2 30 1 60 -2 31 -3 58 -2 61 2 3 5 9 6
13 4 4 -3 23 -6 42 -6 35 -1 177 -2 204 -1 31 2 46 2 90 2 25 0 52 0 60 0 8 0
35 0 60 0 44 0 59 0 90 -2 21 0 162 0 183 1 9 0 29 0 44 0 22 0 26 3 20 17 -4
10 -270 541 -590 1181 l-583 1163 249 497 c137 273 258 516 271 540 l22 43
1019 -2038 c561 -1121 1020 -2038 1020 -2039z"/>
</g>
</svg>
